PathFileType	4	(X/Y/Z)	C:\Users\Basilio\Documents\Thesis Gigler\squatting_fais\c3dfiles\019\SJ_pre5\markers_experimental.trc
DataRate	CameraRate	NumFrames	NumMarkers	Units	OrigDataRate	OrigDataStartFrame	OrigNumFrames
200.000000	200.000000	4	59	mm	200.000000	651	1303
Frame#	Time	FHD			LBHD			RBHD			C7			T10			CLAV			LSHO			LUUPA			LMUPA			LDUPA			LLEP			LMEP			LRAD			LUL			LRFIN			RSHO			RUPA1			RMUPA			RDUPA			RLEP			RMEP			RRAD			RUL			RUFIN			LASI			USACR			LSACR			RSACR			LTHI1			LTHI2			LTHI3			LTHI4			LLFC			LTIB1			LTIB2			LTIB3			LTIB4			LLMAL			LMMAL			LHEE			LMT1			LMT2			LMT5			RTHI			RTHI2			RTHI3			RTHI4			RLFC			RTIB1			RTIB2			RTIB3			RTIB4			RLMAL			RMMAL			RHEE			RMT1			RMT2			RMT5			RASI			
		X1	Y1	Z1	X2	Y2	Z2	X3	Y3	Z3	X4	Y4	Z4	X5	Y5	Z5	X6	Y6	Z6	X7	Y7	Z7	X8	Y8	Z8	X9	Y9	Z9	X10	Y10	Z10	X11	Y11	Z11	X12	Y12	Z12	X13	Y13	Z13	X14	Y14	Z14	X15	Y15	Z15	X16	Y16	Z16	X17	Y17	Z17	X18	Y18	Z18	X19	Y19	Z19	X20	Y20	Z20	X21	Y21	Z21	X22	Y22	Z22	X23	Y23	Z23	X24	Y24	Z24	X25	Y25	Z25	X26	Y26	Z26	X27	Y27	Z27	X28	Y28	Z28	X29	Y29	Z29	X30	Y30	Z30	X31	Y31	Z31	X32	Y32	Z32	X33	Y33	Z33	X34	Y34	Z34	X35	Y35	Z35	X36	Y36	Z36	X37	Y37	Z37	X38	Y38	Z38	X39	Y39	Z39	X40	Y40	Z40	X41	Y41	Z41	X42	Y42	Z42	X43	Y43	Z43	X44	Y44	Z44	X45	Y45	Z45	X46	Y46	Z46	X47	Y47	Z47	X48	Y48	Z48	X49	Y49	Z49	X50	Y50	Z50	X51	Y51	Z51	X52	Y52	Z52	X53	Y53	Z53	X54	Y54	Z54	X55	Y55	Z55	X56	Y56	Z56	X57	Y57	Z57	X58	Y58	Z58	X59	Y59	Z59	

652	3.255	131.3896942138672	880.7751464843752	-854.7861328125002	13.09865093231202	929.1999511718752	-1005.7021484375	0.5232760310173036	925.7131958007815	-865.7147216796877	-101.7221298217774	831.6882934570315	-937.550720214844	-369.8319702148438	725.9297485351564	-943.6780395507815	nan	nan	nan	-49.01674652099611	776.6958007812502	-1073.297607421875	-159.4511260986328	739.4829711914064	-1197.56884765625	-197.0364227294922	710.2567138671876	-1185.834838867188	-212.2769927978516	732.5920410156251	-1238.5078125	-268.9098510742188	754.0805664062501	-1298.42431640625	-311.2859802246094	808.6585083007815	-1274.690307617188	-464.666961669922	633.1408691406251	-1184.595703125	-458.1438903808595	594.8423461914064	-1242.007080078125	-435.9859619140626	596.0487670898439	-1147.251586914063	-48.33504867553712	692.9728393554689	-930.5467529296877	-185.0650024414063	810.6682128906252	-666.0578613281251	-200.4785766601563	760.6694946289064	-654.7347412109376	-235.3192596435547	795.6258544921877	-618.2055053710939	-303.1268005371094	763.3713989257814	-579.2963256835939	-339.6773376464844	817.879089355469	-606.0288085937501	-482.6379699707032	630.9074707031251	-714.5773925781251	-468.8529357910157	581.4460449218751	-669.0711669921876	-460.5061950683595	597.3302612304689	-763.8248901367189	nan	nan	nan	-509.4844055175782	660.0993041992189	-948.390319824219	-538.2016601562501	643.0546875000001	-974.7522583007815	-538.2664184570314	641.7366333007814	-919.9843750000002	-404.5193481445314	458.7872924804689	-1172.11279296875	-324.0593261718751	485.7696228027345	-1186.381225585938	-310.4947204589844	526.7260742187501	-1164.7236328125	-273.9427795410157	450.7554931640626	-1194.738525390625	-192.6874389648438	426.6668090820314	-1190.239501953125	-158.5053100585938	294.3648071289063	-1164.106811523438	-231.9857025146485	273.1663513183594	-1209.916625976563	-197.2761383056641	259.1476440429688	-1188.279663085938	-229.8899383544922	188.8359832763672	-1149.819580078125	-346.1296997070313	95.87546539306642	-1168.7314453125	-316.8892822265626	96.08319091796878	-1086.462524414063	-399.7015075683595	42.80132293701173	-1108.50634765625	-187.1997528076172	57.35300827026369	-1127.437255859375	-194.3218231201172	60.07334518432619	-1170.6318359375	-243.2426300048829	36.40934753417969	-1217.432861328125	-477.755096435547	496.3973693847657	-735.5028686523439	-421.0100708007814	517.6601562500001	-733.2854614257814	-412.0730895996095	539.0325317382814	-759.1329956054689	-352.0868225097657	489.461395263672	-698.9578247070314	-212.4690093994141	430.3167724609376	-682.3956909179689	-189.1149291992188	257.0901794433594	-727.3612060546876	-280.4782104492188	210.4507446289063	-688.0471191406251	-242.7814025878907	191.627426147461	-714.3101196289064	-256.1107177734376	152.2899475097657	-754.1425781250001	-353.1281433105469	97.18202209472659	-724.3228759765626	-315.9707946777344	94.1422805786133	-797.403991699219	-399.9229736328126	43.67113876342774	-788.438415527344	-197.1752014160157	54.38423919677736	-736.4125366210939	-209.6635742187501	62.53480911254884	-692.4954223632814	-262.9760131835938	41.60709762573243	-655.1207885742189	-468.3287353515626	532.4390869140626	-897.3171386718752	
653	3.26	131.9074096679688	879.3804931640627	-855.206481933594	13.39808654785157	928.4875488281252	-1005.786071777344	1.503478527069092	924.4094238281252	-865.692810058594	-101.7717971801758	831.2667236328127	-937.5156860351565	-369.9827270507813	725.9554443359376	-943.5980224609377	nan	nan	nan	-48.86129379272462	776.0920410156252	-1073.299438476563	-159.4326171875	739.1122436523439	-1197.513549804688	-196.9935913085938	709.9962158203126	-1185.844116210938	-212.2630767822266	732.3840942382814	-1238.397583007813	-268.6982727050782	754.0170288085939	-1298.402221679688	-310.6954345703126	808.608825683594	-1274.631469726563	-464.6208801269532	633.4314575195314	-1184.435791015625	-458.125457763672	595.1117553710939	-1241.829711914063	-435.7654724121095	596.1786499023439	-1147.239379882813	-48.04513549804689	692.2358398437501	-930.4921875000002	-184.8521575927735	810.068298339844	-666.0662841796876	-200.2578735351563	760.2884521484376	-654.5960693359376	-235.0843353271485	795.2393188476565	-618.1096191406251	-303.0283508300782	763.0864868164064	-579.2590332031251	-339.2393188476563	817.7422485351565	-605.8298339843751	-482.5624389648439	630.8736572265626	-714.6204833984376	-468.8549804687501	581.4406127929689	-669.1301879882814	-460.4708251953126	597.2899780273439	-763.8270874023439	nan	nan	nan	-509.7217102050782	660.2517700195314	-948.218688964844	-538.3290405273439	643.1033935546876	-974.631042480469	-538.3157958984376	641.7956542968751	-919.8389282226565	-404.4985961914064	458.9434509277345	-1172.20751953125	-323.9779357910157	485.7982482910157	-1186.434204101563	-310.4734497070313	526.8188476562501	-1164.762939453125	-273.9413146972657	450.8583374023439	-1194.855102539063	-192.6857299804688	426.6668090820314	-1190.303588867188	-158.620849609375	294.3997192382813	-1164.217163085938	-232.1195983886719	273.2356262207032	-1209.945556640625	-197.2876892089844	259.1805419921876	-1188.294311523438	-229.8533630371094	188.840316772461	-1149.864013671875	-346.1028442382813	95.8830032348633	-1168.716064453125	-316.8089294433594	96.07649230957034	-1086.4814453125	-399.6980590820314	42.82854461669923	-1108.487426757813	-187.0779876708985	57.3424530029297	-1127.420776367188	-194.4390258789063	59.98962402343751	-1170.491455078125	-243.2573547363282	36.44365692138673	-1217.441040039063	-477.571014404297	496.1900634765626	-735.5504150390626	-420.988983154297	517.5825805664064	-733.3222656250001	-412.0766906738282	539.0208740234376	-759.2038574218751	-351.9784545898438	489.3570861816407	-699.0343017578126	-212.3638305664063	430.3181457519532	-682.4777221679689	-188.7516174316407	256.7073364257813	-727.2830200195314	-280.5037231445313	210.4569396972657	-688.1024169921876	-242.8398590087891	191.6585083007813	-714.3836669921876	-256.2326965332032	152.5614624023438	-753.7111816406251	-353.1160888671876	97.22312927246097	-724.3377685546876	-315.9766235351563	94.12838745117189	-797.3861083984377	-400.0391540527345	43.7369613647461	-788.4418945312502	-197.1676635742188	54.42131423950197	-736.4055175781251	-209.6988983154297	62.53243255615236	-692.5105590820314	-263.0316162109376	41.61738967895509	-655.1389160156251	-466.907440185547	531.5341796875001	-898.5216064453127	
654	3.265	132.7774658203125	877.7796020507815	-855.7849731445315	13.84150695800782	927.6909790039065	-1005.639892578125	2.400093317031861	923.5380859375002	-865.5263671875002	-101.1966781616211	830.591491699219	-937.336853027344	-369.9892578125001	725.9800415039064	-943.477233886719	nan	nan	nan	-48.48920822143556	775.3145141601565	-1073.348999023438	-159.2020721435547	738.6224975585939	-1197.456420898438	-196.8390197753907	709.6670532226564	-1185.868286132813	-212.1318054199219	732.1287841796876	-1238.384765625	-268.5257568359376	753.9397583007814	-1298.352905273438	-310.4124755859376	808.561462402344	-1274.530639648438	-464.5696716308595	633.5842895507814	-1184.327026367188	-458.2605590820314	595.2591552734376	-1241.695556640625	-435.619110107422	596.1893310546876	-1147.28564453125	-47.94347381591798	691.5397949218751	-930.4185180664065	-184.8130187988282	809.3795166015627	-666.2370605468751	-199.9782714843751	759.7664794921876	-654.4887695312501	-234.8166198730469	794.7644042968752	-618.0560913085939	-302.8963012695313	762.8275146484376	-579.2331542968751	-338.9465942382813	817.5349121093752	-605.8572998046876	-482.4833374023439	630.8681030273439	-714.6949462890626	-468.8487243652345	581.3612060546876	-669.1209106445314	-460.4071655273439	597.2431640625001	-763.8579101562501	nan	nan	nan	-509.7158508300782	660.2521362304689	-948.1214599609377	-538.1225585937501	643.0108642578126	-974.515563964844	-538.4229736328126	641.7128295898439	-919.769958496094	-404.4791564941407	459.085906982422	-1172.251220703125	-323.9373168945313	485.965789794922	-1186.530883789063	-310.6109313964844	526.8406372070314	-1165.054931640625	-273.9328308105469	450.939666748047	-1194.95947265625	-192.776351928711	426.7601623535157	-1190.3896484375	-158.6893463134766	293.9942016601563	-1164.8447265625	-232.1809387207032	273.2789306640626	-1210.030639648438	-197.3311920166016	259.2171020507813	-1188.40771484375	-229.9707794189454	188.8729248046875	-1149.913940429688	-346.1584472656251	95.94591522216798	-1168.724243164063	-316.7135009765626	96.12042999267581	-1086.458984375	-399.6631774902345	42.80272293090821	-1108.522827148438	-187.2303771972657	57.37533187866212	-1127.418212890625	-194.520248413086	59.93020629882814	-1170.40234375	-243.2474670410157	36.42416000366212	-1217.458618164063	-477.5201110839845	495.9742736816407	-735.6052856445314	-420.9836425781251	517.4944458007814	-733.3364257812501	-412.0249328613282	538.9027709960939	-759.2659912109376	-351.8241577148438	489.2296142578126	-699.1509399414064	-212.3038024902344	430.3036499023439	-682.6193237304689	-189.0208587646485	257.0429382324219	-727.4964599609376	-280.4367370605469	210.4364776611329	-688.1546020507814	-242.7598724365235	191.5908660888672	-714.3988647460939	-256.2581176757813	152.450424194336	-754.0266113281251	-353.1172180175782	97.16593933105472	-724.3266601562501	-315.9954223632813	94.14137268066408	-797.3951416015627	-399.9342041015626	43.59458541870118	-788.4906005859377	-197.2889709472657	54.39389038085939	-736.4447631835939	-209.7353820800782	62.55054092407228	-692.5283203125001	-262.8990478515626	41.56512069702149	-655.1453857421876	-465.7713928222657	530.4348144531251	-899.3166503906252	
655	3.27	133.7120666503907	876.411804199219	-855.967956542969	14.03231430053711	926.9524536132815	-1005.376953125	3.457730293273927	922.726013183594	-865.1900024414065	-101.0177536010742	830.0029296875002	-937.2440185546877	-370.0600585937501	726.0630493164064	-943.3225708007815	nan	nan	nan	-48.3536949157715	774.5412597656252	-1073.308959960938	-159.0713958740235	738.1862792968751	-1197.431030273438	-196.7866516113282	709.2317504882814	-1185.89306640625	-211.9761657714844	731.7889404296876	-1238.4013671875	-268.4382324218751	753.8558959960939	-1298.303344726563	-310.1117248535157	808.4262695312502	-1274.460815429688	-464.6857299804689	633.8750000000001	-1184.134155273438	-458.3244018554689	595.4611816406251	-1241.573608398438	-435.3486633300782	596.1143188476564	-1147.563232421875	-47.75730514526368	690.6785278320314	-930.341491699219	-184.5507049560547	808.8084716796877	-666.1709594726564	-200.2887420654297	758.6799316406251	-655.6860351562501	-234.6227111816407	794.330261230469	-618.0260009765626	-302.7433471679688	762.5782470703126	-579.0875244140626	-338.6035766601563	817.2261352539065	-605.8417968750001	-482.4349365234376	630.8318481445314	-714.7622680664064	-468.9797973632814	581.3802490234376	-669.1886596679689	-460.5010375976564	597.1953125000001	-764.0210571289064	nan	nan	nan	-509.8633422851564	660.3291015625001	-947.9927978515627	-538.3903198242189	643.1239013671876	-974.4876098632815	-538.5701293945314	641.7301635742189	-919.6372070312502	-404.4851074218751	459.2054138183595	-1172.35888671875	-323.9897460937501	486.0467834472657	-1186.643310546875	-310.6971740722657	526.8018188476564	-1165.337768554688	-273.9170837402344	450.9926147460939	-1195.09716796875	-192.6602172851563	426.8021850585939	-1190.471801757813	-158.5449981689453	294.4805908203126	-1164.376953125	-232.241439819336	273.3710632324219	-1210.068115234375	-197.4425811767579	259.2839965820313	-1188.48779296875	-229.9744262695313	188.8815612792969	-1149.974853515625	-346.1167602539063	95.92578125000001	-1168.695434570313	-316.7204284667969	96.12641143798831	-1086.4716796875	-399.7197265625001	42.8191146850586	-1108.47216796875	-187.2229614257813	57.40084457397462	-1127.408935546875	-194.3930816650391	60.04362869262697	-1170.5654296875	-243.2360992431641	36.09386062622071	-1217.160522460938	-477.4523010253907	495.7899169921876	-735.6876220703126	-420.8971557617189	517.3362426757814	-733.4169311523439	-412.011688232422	538.8005981445314	-759.3139038085939	-351.8221435546876	489.189910888672	-699.1712036132814	-212.1902008056641	430.2502441406251	-682.6790161132814	-188.9852142333985	257.0935363769532	-727.6044311523439	-280.3377685546876	210.4690704345704	-688.1951293945314	-242.7167510986329	191.5240173339844	-714.4458618164064	-256.3796081542969	152.4701232910157	-754.0048828125001	-353.1248779296876	97.20373535156253	-724.3643188476564	-315.9449462890626	94.15599060058595	-797.4602050781252	-400.051239013672	43.76112747192384	-788.442565917969	-197.229965209961	54.36225891113283	-736.4322509765626	-209.6920318603516	62.57632064819337	-692.5258178710939	-262.9953613281251	41.6305160522461	-655.1419677734376	-464.9924621582032	529.0875244140626	-900.8546142578127	
